<svg width="24" height="24" viewBox="0 0 24 24" fill="none" xmlns="http://www.w3.org/2000/svg">
<path d="M10.3125 11.7344H8.76855V10.2344H10.3125V11.7344Z" fill="#262626"/>
<path d="M15.9199 11.7344H14.376V10.2344H15.9199V11.7344Z" fill="#262626"/>
<path fill-rule="evenodd" clip-rule="evenodd" d="M12.3213 1.75098C14.8464 1.75213 16.924 3.66136 17.1924 6.11523H20.5781L20.6201 6.81934L21.5576 22.25H2.44336L3.42285 6.11523H7.42871C7.55093 5.00934 8.04493 3.97125 8.84082 3.17871C9.76432 2.25911 11.0162 1.74621 12.3193 1.75098H12.3213ZM4.83398 7.61523L4.03711 20.75H19.9629L19.165 7.61523H4.83398ZM12.3154 3.25C11.4103 3.24627 10.5408 3.6035 9.89941 4.24219C9.3868 4.75273 9.05356 5.40982 8.94043 6.11523H15.6797C15.4214 4.49154 14.0157 3.25016 12.3193 3.25H12.3154Z" fill="#262626"/>
</svg>
