<svg width="24" height="24" viewBox="0 0 24 24" fill="none" xmlns="http://www.w3.org/2000/svg">
<path fill-rule="evenodd" clip-rule="evenodd" d="M12 1.25C17.9371 1.25 22.75 6.06294 22.75 12C22.75 17.9371 17.9371 22.75 12 22.75C6.06294 22.75 1.25 17.9371 1.25 12C1.25 6.06294 6.06294 1.25 12 1.25ZM15.252 17.0283C13.0908 17.2707 10.9092 17.2707 8.74805 17.0283C8.98088 18.2886 9.30249 19.5365 9.71191 20.7627C9.73478 20.8313 9.74542 20.9021 9.74805 20.9727C10.469 21.153 11.2232 21.25 12 21.25C12.7776 21.25 13.5323 21.1524 14.2539 20.9717C14.2566 20.9023 14.266 20.8319 14.2891 20.7627C14.6985 19.5366 15.0191 18.2886 15.252 17.0283ZM20.251 16.0205C19.1178 16.3547 17.969 16.617 16.8115 16.8105C16.6125 18.0012 16.3381 19.182 15.9902 20.3467C17.8397 19.4609 19.3467 17.978 20.2666 16.1484C20.2583 16.1069 20.2522 16.0643 20.251 16.0205ZM3.73145 16.1465C4.62462 17.9241 6.07335 19.3728 7.85059 20.2666C7.8923 20.2582 7.93557 20.2522 7.97949 20.251C7.64518 19.1174 7.38108 17.9684 7.1875 16.8105C6.03003 16.617 4.8812 16.3547 3.74805 16.0205C3.74689 16.0637 3.73957 16.1054 3.73145 16.1465ZM15.4902 8.50879C13.1726 8.21414 10.8264 8.21325 8.50879 8.50781C8.21402 10.8258 8.21418 13.1723 8.50879 15.4902C10.8265 15.7849 13.1725 15.7848 15.4902 15.4902C15.7848 13.1725 15.7849 10.8265 15.4902 8.50879ZM17.0283 8.74902C17.2706 10.9099 17.2707 13.0911 17.0283 15.252C18.2886 15.0191 19.5366 14.6985 20.7627 14.2891C20.8313 14.2662 20.9021 14.2546 20.9727 14.252C21.153 13.531 21.25 12.7768 21.25 12C21.25 11.2235 21.1529 10.4697 20.9727 9.74902C20.9273 9.74735 20.8815 9.74268 20.8359 9.73242L20.7627 9.71191L20.2285 9.54004C19.1748 9.21179 18.106 8.94817 17.0283 8.74902ZM6.96973 8.74902C5.71014 8.9818 4.46281 9.30271 3.2373 9.71191C3.1678 9.73509 3.09702 9.74351 3.02734 9.74609C2.84668 10.4676 2.75 11.2225 2.75 12C2.75 12.7768 2.84604 13.5311 3.02637 14.252C3.0973 14.2545 3.16835 14.266 3.2373 14.2891C4.46277 14.6982 5.71016 15.0182 6.96973 15.251C6.72749 13.0905 6.72758 10.9095 6.96973 8.74902ZM7.85254 3.73145C6.02275 4.65105 4.5394 6.15859 3.65332 8.00781C4.8173 7.66018 5.9976 7.38649 7.1875 7.1875C7.38106 6.02994 7.64524 4.88127 7.97949 3.74805C7.93616 3.74685 7.89373 3.73966 7.85254 3.73145ZM15.9902 3.65234C16.3381 4.81673 16.6125 5.99719 16.8115 7.1875C18.0014 7.38645 19.1817 7.66022 20.3457 8.00781C19.4342 6.10582 17.8925 4.56329 15.9902 3.65234ZM12 2.75C11.2232 2.75 10.4689 2.84604 9.74805 3.02637C9.7455 3.09725 9.73488 3.16841 9.71191 3.2373C9.3026 4.46316 8.98087 5.71073 8.74805 6.9707C10.9092 6.72835 13.0908 6.72835 15.252 6.9707C15.0191 5.71076 14.6984 4.46313 14.2891 3.2373C14.2658 3.16774 14.2565 3.09707 14.2539 3.02734C13.5324 2.84668 12.7775 2.75 12 2.75Z" fill="#FEFEFE"/>
</svg>
