<svg width="120" height="24" viewBox="0 0 120 24" fill="none" xmlns="http://www.w3.org/2000/svg">
<path d="M24.5495 24C22.8892 24 21.555 23.7579 20.5469 23.2737C19.5685 22.7684 18.8124 22.1684 18.2787 21.4737C17.7747 20.7579 17.2262 19.7789 16.6332 18.5368C16.0402 17.2526 15.4621 16.2421 14.8987 15.5053C14.365 14.7474 13.5497 14.1053 12.4527 13.5789C11.3853 13.0526 9.93248 12.7895 8.09423 12.7895V12.5053C11.8893 12.5053 14.6171 12.0316 16.2774 11.0842C17.9378 10.1368 18.7679 8.74737 18.7679 6.91579C18.7679 5.08421 18.0267 3.52631 16.5442 2.2421C15.0914 0.957894 12.7343 0.315789 9.47292 0.315789C8.58344 0.315789 7.66432 0.399999 6.71554 0.568419L6.67107 21.4737C6.67107 21.8737 6.93791 22.1895 7.4716 22.4211C8.00528 22.6526 8.67239 22.7684 9.47292 22.7684C10.0659 22.7684 10.6441 22.7053 11.2074 22.5789V23.3684H0V22.5789C0.563335 22.7053 1.0822 22.7684 1.55658 22.7684C2.11992 22.7684 2.54983 22.6632 2.84632 22.4526C3.17246 22.2211 3.33553 21.8947 3.33553 21.4737V1.89474C3.33553 1.47368 3.17246 1.15789 2.84632 0.947367C2.54983 0.715789 2.11992 0.6 1.55658 0.6C1.0822 0.6 0.563335 0.663158 0 0.789473V0H11.4298C14.6022 0 17.241 0.547368 19.3461 1.6421C21.4512 2.73684 22.5037 4.43158 22.5037 6.72632C22.5037 8.2 21.7329 9.43158 20.1911 10.4211C18.679 11.4105 16.737 12.0947 14.365 12.4737C15.1952 12.4947 15.9216 12.7368 16.5442 13.2C17.1965 13.6632 17.7599 14.2421 18.2343 14.9368C18.7086 15.6105 19.2571 16.5053 19.8798 17.6211C20.5617 18.8421 21.1547 19.8211 21.6587 20.5579C22.1628 21.2947 22.7854 21.9158 23.5266 22.4211C24.2679 22.9263 25.1425 23.1789 26.1506 23.1789C26.9511 23.1789 27.722 22.9368 28.4632 22.4526C29.2341 21.9474 29.8271 21.4316 30.2422 20.9053L30.598 21.3158C29.7974 22.2632 28.9376 22.9474 28.0185 23.3684C27.129 23.7895 25.9727 24 24.5495 24Z" fill="#FEFEFE"/>
<path d="M34.9977 23.6842C32.1811 23.6842 30.076 23.0211 28.6825 21.6947C27.289 20.3474 26.5922 18.3895 26.5922 15.8211C26.5922 14.4737 26.8887 13.2105 27.4817 12.0316C28.0747 10.8316 28.9938 9.86316 30.239 9.12632C31.514 8.36842 33.0705 7.98947 34.9088 7.98947C37.9034 7.98947 40.0381 8.64211 41.313 9.94737C42.5879 11.2316 43.2254 12.7789 43.2254 14.5895C43.2254 14.9053 43.1957 15.3158 43.1364 15.8211L43.092 16.1053H29.7054C29.824 20.8211 31.677 23.1789 35.2646 23.1789C36.8656 23.1789 38.0516 22.8316 38.8225 22.1368C39.5934 21.4421 39.9788 20.6526 39.9788 19.7684C39.9788 19.4105 39.8454 19.1474 39.5785 18.9789C39.3414 18.8105 39.03 18.7263 38.6446 18.7263C38.3481 18.7263 38.0813 18.7895 37.8441 18.9158C37.6365 19.0211 37.5327 19.1579 37.5327 19.3263H37.1325V18.4737H42.7807C42.8696 19.2737 42.5879 20.0737 41.9357 20.8737C41.313 21.6737 40.3939 22.3368 39.1783 22.8632C37.9627 23.3895 36.5691 23.6632 34.9977 23.6842ZM38.9559 15.6316C39.4896 15.6316 39.8009 15.6 39.8899 15.5368C40.0085 15.4526 40.0826 15.2632 40.1122 14.9684C40.1419 14.7368 40.1567 14.3895 40.1567 13.9263C40.1567 12.3263 39.7416 11 38.9114 9.94737C38.0813 8.89474 36.6877 8.36842 34.7309 8.36842C32.8334 8.36842 31.5288 9.03158 30.8172 10.3579C30.1056 11.6842 29.735 13.4421 29.7054 15.6316H38.9559Z" fill="#FEFEFE"/>
<path d="M62.937 21.4737C62.937 22 63.0111 22.4 63.1594 22.6737C63.3076 22.9263 63.6486 23.0526 64.1823 23.0526C64.4195 23.0526 64.7901 23 65.2941 22.8947V23.3684H57.7336V22.8947C58.2376 23 58.6082 23.0526 58.8454 23.0526C59.3198 23.0526 59.6163 22.9263 59.7349 22.6737C59.8831 22.4211 59.9573 22.0211 59.9573 21.4737V13.0105C59.9573 11.5579 59.5274 10.4211 58.6675 9.6C57.8373 8.77895 56.7403 8.36842 55.3765 8.36842C54.0719 8.36842 53.0194 8.73684 52.2188 9.47368C51.4479 10.1895 50.8994 11.0421 50.5733 12.0316C50.2768 13.0211 50.1286 13.9684 50.1286 14.8737V21.4737C50.1286 22.0211 50.1879 22.4211 50.3065 22.6737C50.4547 22.9263 50.766 23.0526 51.2404 23.0526C51.4776 23.0526 51.8482 23 52.3522 22.8947V23.3684H44.7917V22.8947C45.2957 23 45.6664 23.0526 45.9035 23.0526C46.4372 23.0526 46.7782 22.9263 46.9264 22.6737C47.0747 22.4 47.1488 22 47.1488 21.4737V10.2632C46.7041 10.3684 46.2297 10.4211 45.7257 10.4211C45.5181 10.4211 45.2068 10.4 44.7917 10.3579V9.50526H45.192C45.192 9.65263 45.2957 9.77895 45.5033 9.88421C45.7405 9.98947 46.0073 10.0421 46.3038 10.0421C46.7189 10.0421 47.0895 9.92632 47.4157 9.69474C47.7418 9.46316 48.1421 9.10526 48.6165 8.62105H49.417L49.4615 11.1789H50.0841C50.6178 10.2316 51.3442 9.46316 52.2633 8.87368C53.2121 8.26316 54.3832 7.95789 55.7767 7.95789C56.9034 7.95789 58.0152 8.16842 59.1123 8.58947C60.2389 8.98947 61.1581 9.57895 61.8696 10.3579C62.5812 11.1158 62.937 12 62.937 13.0105V21.4737Z" fill="#FEFEFE"/>
<path d="M75.4671 23.6842C72.3243 23.6842 70.0562 22.9789 68.6627 21.5684C67.2988 20.1368 66.6169 18.2211 66.6169 15.8211C66.6169 13.6105 67.3136 11.7579 68.7071 10.2632C70.1006 8.74737 72.354 7.98947 75.4671 7.98947C78.5803 7.98947 80.8336 8.74737 82.2272 10.2632C83.6503 11.7579 84.3619 13.6105 84.3619 15.8211C84.3619 18.2211 83.6652 20.1368 82.2716 21.5684C80.8781 22.9789 78.61 23.6842 75.4671 23.6842ZM75.4671 23.3053C77.4833 23.3053 78.9509 22.6211 79.8701 21.2526C80.7892 19.8632 81.2487 18.0526 81.2487 15.8211C81.2487 13.7368 80.7744 11.9789 79.8256 10.5474C78.8768 9.09474 77.424 8.36842 75.4671 8.36842C73.5103 8.36842 72.0575 9.09474 71.1087 10.5474C70.1896 11.9789 69.73 13.7368 69.73 15.8211C69.73 18.0526 70.1896 19.8632 71.1087 21.2526C72.0278 22.6211 73.4807 23.3053 75.4671 23.3053Z" fill="#FEFEFE"/>
<path d="M104.042 8.62105V9.09474C103.716 9.01053 103.39 8.96842 103.064 8.96842C102.352 8.96842 101.744 9.13684 101.24 9.47368C100.766 9.78947 100.455 10.1158 100.306 10.4526L94.5693 23.3684H92.0788L86.653 10.7053C86.2972 9.56842 85.556 9 84.4293 9C84.1032 9 83.777 9.03158 83.4509 9.09474V8.62105H91.2338V9.09474C90.7891 9.03158 90.4184 9 90.122 9C89.7365 9 89.44 9.05263 89.2325 9.1579C89.0546 9.26316 88.9656 9.4 88.9656 9.56842C88.9656 9.63158 88.9953 9.72632 89.0546 9.85263L94.2135 22.4842L99.5949 10.4526C99.6838 10.2211 99.7283 10.0105 99.7283 9.82105C99.7283 9.23158 99.2984 8.93684 98.4386 8.93684C98.0531 8.93684 97.6529 8.98947 97.2378 9.09474V8.62105H104.042Z" fill="#FEFEFE"/>
<path d="M111.105 23.6842C107.962 23.6842 105.694 22.9789 104.301 21.5684C102.937 20.1368 102.255 18.2211 102.255 15.8211C102.255 13.6105 102.952 11.7579 104.345 10.2632C105.739 8.74737 107.992 7.98947 111.105 7.98947C114.218 7.98947 116.472 8.74737 117.865 10.2632C119.288 11.7579 120 13.6105 120 15.8211C120 18.2211 119.303 20.1368 117.91 21.5684C116.516 22.9789 114.248 23.6842 111.105 23.6842ZM111.105 23.3053C113.121 23.3053 114.589 22.6211 115.508 21.2526C116.427 19.8632 116.887 18.0526 116.887 15.8211C116.887 13.7368 116.412 11.9789 115.464 10.5474C114.515 9.09474 113.062 8.36842 111.105 8.36842C109.148 8.36842 107.696 9.09474 106.747 10.5474C105.828 11.9789 105.368 13.7368 105.368 15.8211C105.368 18.0526 105.828 19.8632 106.747 21.2526C107.666 22.6211 109.119 23.3053 111.105 23.3053Z" fill="#FEFEFE"/>
</svg>
