<svg width="24" height="24" viewBox="0 0 24 24" fill="none" xmlns="http://www.w3.org/2000/svg">
<path d="M10 9C10.5523 9 11 9.44772 11 10V17C11 17.5523 10.5523 18 10 18C9.44772 18 9 17.5523 9 17V10C9 9.44772 9.44772 9 10 9Z" fill="#262626"/>
<path d="M14 9C14.5523 9 15 9.44772 15 10V17C15 17.5523 14.5523 18 14 18C13.4477 18 13 17.5523 13 17V10C13 9.44772 13.4477 9 14 9Z" fill="#262626"/>
<path fill-rule="evenodd" clip-rule="evenodd" d="M13 2C13.4521 2 13.8413 1.99961 14.1621 2.02148C14.4919 2.04399 14.8225 2.09351 15.1484 2.22852C15.8833 2.53303 16.4671 3.11685 16.7715 3.85156C16.9065 4.17743 16.956 4.50803 16.9785 4.83789C16.9821 4.89008 16.9819 4.94422 16.9844 5H20C20.5523 5 21 5.44772 21 6C21 6.55229 20.5523 7 20 7H19V17.7998C19 18.3433 19.001 18.8117 18.9697 19.1953C18.9375 19.5905 18.8656 19.9839 18.6729 20.3623C18.385 20.9271 17.9252 21.3856 17.3613 21.6729C16.9832 21.8655 16.5905 21.9374 16.1953 21.9697C15.8117 22.0011 15.3434 22 14.7998 22H9.2002C8.65662 22 8.18846 22.0011 7.80469 21.9697C7.40939 21.9374 7.01604 21.8656 6.6377 21.6729C6.07322 21.3852 5.61468 20.9265 5.32715 20.3623C5.13439 19.984 5.06258 19.5906 5.03027 19.1953C4.99893 18.8116 5 18.3434 5 17.7998V7H4C3.44772 7 3 6.55229 3 6C3 5.44772 3.44772 5 4 5H7.01562C7.0181 4.94421 7.01793 4.89008 7.02148 4.83789C7.04399 4.50806 7.09351 4.17749 7.22852 3.85156C7.53293 3.11693 8.11646 2.53306 8.85156 2.22852C9.17753 2.0935 9.50805 2.04398 9.83789 2.02148C10.1587 1.99962 10.5479 2 11 2H13ZM7 17.7998C7 18.3764 7.00126 18.7489 7.02441 19.0322C7.04661 19.3039 7.08419 19.4047 7.10938 19.4541C7.20532 19.6423 7.35798 19.7949 7.5459 19.8906C7.59529 19.9158 7.696 19.9534 7.96777 19.9756C8.25122 19.9987 8.62367 20 9.2002 20H14.7998C15.3764 20 15.749 19.9987 16.0322 19.9756C16.3036 19.9534 16.4046 19.9158 16.4541 19.8906C16.6426 19.7945 16.7961 19.6416 16.8916 19.4541C16.9167 19.4047 16.9544 19.3038 16.9766 19.0322C16.9997 18.7488 17 18.3764 17 17.7998V7H7V17.7998ZM11 4C10.5204 4 10.2107 4.00043 9.97363 4.0166C9.74569 4.03215 9.6588 4.05895 9.61719 4.07617C9.37242 4.17756 9.17777 4.37199 9.07617 4.61719C9.05894 4.65879 9.03216 4.74571 9.0166 4.97363C9.01601 4.98227 9.01617 4.99116 9.01562 5H14.9844C14.9838 4.99119 14.984 4.98224 14.9834 4.97363C14.9678 4.74581 14.9411 4.65885 14.9238 4.61719C14.8223 4.37216 14.6277 4.17764 14.3828 4.07617C14.3412 4.05894 14.2543 4.03216 14.0264 4.0166C13.7894 4.00043 13.4796 4 13 4H11Z" fill="#262626"/>
</svg>
